<?xml version="1.0" encoding="utf-8"?>
<!-- Generator: Adobe Illustrator 19.1.0, SVG Export Plug-In . SVG Version: 6.00 Build 0)  -->
<svg version="1.1" id="Layer_1" xmlns="http://www.w3.org/2000/svg" xmlns:xlink="http://www.w3.org/1999/xlink" x="0px" y="0px"
	 viewBox="0 0 198.8 176" style="enable-background:new 0 0 198.8 176;" xml:space="preserve">
<style type="text/css">
	.st0{fill:#ADADAD;}
</style>
<path class="st0" d="M99.7,76.1C89.4,76.1,81,84.4,81,94.7c0,10.3,8.3,18.6,18.6,18.6c10.3,0,18.6-8.3,18.6-18.6
	C118.3,84.4,109.9,76.1,99.7,76.1z M149.3,57.6h-14.9c-2,0-4.3-1.6-4.9-3.5l-3.8-11.5c-0.6-1.9-2.9-3.5-4.9-3.5H78.6
	c-2,0-4.3,1.6-4.9,3.5L69.8,54c-0.6,1.9-2.9,3.5-4.9,3.5H50c-6.8,0-12.4,5.6-12.4,12.4v55.7c0,6.8,5.6,12.4,12.4,12.4h99.3
	c6.8,0,12.4-5.6,12.4-12.4V69.9C161.7,63.1,156.1,57.6,149.3,57.6z M99.7,125.6c-17.1,0-31-13.9-31-30.9c0-17.1,13.9-30.9,31-30.9
	c17.1,0,31,13.9,31,30.9C130.7,111.8,116.8,125.6,99.7,125.6z M144.9,78.6c-2.4,0-4.3-1.9-4.3-4.3c0-2.4,1.9-4.3,4.3-4.3
	c2.4,0,4.3,1.9,4.3,4.3C149.3,76.7,147.3,78.6,144.9,78.6z"/>
</svg>
